<svg xmlns="http://www.w3.org/2000/svg" version="1.1" xmlns:xlink="http://www.w3.org/1999/xlink" xmlns:svgjs="http://svgjs.dev/svgjs" viewBox="0 0 800 800"><defs><filter id="uuunion-blur" x="-100%" y="-100%" width="400%" height="400%" color-interpolation-filters="sRGB">
        <feGaussianBlur in="SourceGraphic" stdDeviation="0.5 0" result="blur"></feGaussianBlur>
        <feDropShadow stdDeviation="12.307692307692308" in="blur" dx="10" dy="10" flood-color="hsl(30, 100%, 40%)" flood-opacity="0.25" x="0%" y="0%" width="100%" height="100%"></feDropShadow>
      </filter><filter id="uuunion-blur2" x="-100%" y="-100%" width="400%" height="400%" color-interpolation-filters="sRGB">
        <feGaussianBlur in="SourceGraphic" stdDeviation="0.5 0" result="blur"></feGaussianBlur>
        <feDropShadow stdDeviation="12.307692307692308" in="blur" dx="-10" dy="-10" flood-color="hsl(30, 100%, 40%)" flood-opacity="0.25" x="0%" y="0%" width="100%" height="100%"></feDropShadow>
      </filter><linearGradient gradientTransform="rotate(0, 0.5, 0.5)" x1="50%" y1="0%" x2="50%" y2="100%" id="uuunion-grad"><stop stop-color="hsl(30, 89%, 48%)" offset="10%"></stop><stop stop-color="hsl(30, 100%, 40%)" offset="90%"></stop></linearGradient><linearGradient gradientTransform="rotate(135, 0.5, 0.5)" x1="50%" y1="0%" x2="50%" y2="100%" id="uuunion-grad2"><stop stop-color="hsl(30, 89%, 48%)" offset="25%"></stop><stop stop-color="hsl(30, 100%, 40%)" offset="100%"></stop></linearGradient><linearGradient gradientTransform="rotate(333, 0.5, 0.5)" x1="50%" y1="0%" x2="50%" y2="100%" id="uuunion-grad3"><stop stop-color="hsl(30, 89%, 48%)" offset="0%"></stop><stop stop-color="hsl(30, 100%, 40%)" offset="75%"></stop></linearGradient></defs><path d="M-79.41 -79.21Q-64.62 -76.84 -49.83 -74.71 -35.04 -72.98 -20.25 -71.79 -5.46 -71.23 9.32 -71.35 24.11 -72.12 38.9 -73.5 53.69 -75.38 68.49 -77.61 83.28 -80.02 98.07 -82.44 112.86 -84.66 127.65 -86.53 142.44 -87.89 157.23 -88.65 172.02 -88.75 186.81 -88.18 201.6 -86.98 216.39 -85.24 231.18 -83.1 245.97 -80.72 260.76 -78.29 275.55 -75.99 290.34 -73.99 305.13 -72.46 319.92 -71.5 334.72 -71.2 349.51 -71.56 364.3 -72.58 379.09 -74.16 393.88 -76.19 408.67 -78.52 423.46 -80.95 438.25 -83.31 453.04 -85.42 467.83 -87.11 482.62 -88.26 497.41 -88.77 512.2 -88.61 526.99 -87.79 541.78 -86.37 556.57 -84.46 571.36 -82.21 586.15 -79.79 600.94 -77.39 615.74 -75.18 630.53 -73.35 645.32 -72.02 660.11 -71.31 674.9 -71.26 689.69 -71.88 704.48 -73.12 719.27 -74.89 734.06 -77.05 748.85 -79.44 763.64 -81.87 778.43 -84.16 793.22 -86.12 808.01 -87.62 822.8 -88.53 837.59 -88.79 852.38 -88.37 867.17 -87.32 859.15 -72.5 855.92 -57.69 858.21 -42.88 865.5 -28.06 876.12 -13.25 887.64 1.55 897.39 16.36 903.15 31.18 903.6 45.99 898.62 60.8 889.37 75.62 877.97 90.43 867.03 105.24 859.07 120.05 855.91 134.87 858.28 149.68 865.64 164.49 876.29 179.31 887.8 194.12 897.51 208.93 903.2 223.74 903.56 238.56 898.51 253.37 889.21 268.18 877.8 283 866.88 297.81 858.98 312.62 855.9 327.43 858.36 342.25 865.78 357.06 876.46 371.87 887.96 386.69 897.63 401.5 903.25 416.31 903.53 431.12 898.4 445.94 889.05 460.75 877.63 475.56 866.74 490.37 858.9 505.19 855.9 520 858.43 534.81 865.92 549.63 876.63 564.44 888.12 579.25 897.74 594.06 903.29 608.88 903.49 623.69 898.29 638.5 888.89 653.32 877.45 668.13 866.6 682.94 858.82 697.75 855.9 712.57 858.51 727.38 866.06 742.19 876.81 757.01 888.28 771.82 897.86 786.63 903.33 801.44 903.45 816.26 898.18 831.07 888.73 845.88 877.28 860.7 862.33 857.9 847.37 856.81 832.42 857.49 817.46 859.89 802.5 863.84 787.55 869.03 772.59 875.05 757.64 881.46 742.68 887.75 727.73 893.45 712.77 898.12 697.81 901.39 682.86 903.03 667.9 902.9 652.95 901.02 637.99 897.52 623.04 892.68 608.08 886.87 593.12 880.53 578.17 874.15 563.21 868.21 548.26 863.19 533.3 859.44 518.35 857.28 503.39 856.86 488.44 858.21 473.48 861.23 458.52 865.69 443.57 871.24 428.61 877.47 413.66 883.89 398.7 890.01 383.75 895.37 368.79 899.54 353.83 902.22 338.88 903.19 323.92 902.39 308.97 899.86 294.01 895.82 279.06 890.56 264.1 884.49 249.14 878.08 234.19 871.81 219.23 866.17 204.28 861.59 189.32 858.42 174.37 856.91 159.41 857.16 144.45 859.17 129.5 862.77 114.54 867.69 99.59 873.56 84.63 879.92 69.68 886.28 54.72 892.17 39.76 897.12 24.81 900.75 9.85 902.8 -5.09 903.1 -20.05 901.62 -35 898.49 -49.96 893.94 -64.92 888.32 -79.87 882.06 -80.39 867.04 -80.83 852.02 -81.07 837 -81.06 821.98 -80.81 806.96 -80.37 791.94 -79.85 776.92 -79.36 761.9 -79.01 746.88 -78.9 731.86 -79.03 716.84 -79.38 701.82 -79.88 686.8 -80.4 671.78 -80.83 656.76 -81.07 641.74 -81.06 626.72 -80.81 611.7 -80.37 596.68 -79.84 581.66 -79.35 566.64 -79.01 551.62 -78.9 536.6 -79.03 521.58 -79.39 506.56 -79.89 491.54 -80.41 476.52 -80.84 461.5 -81.07 446.48 -81.06 431.46 -80.8 416.44 -80.36 401.42 -79.83 386.4 -79.35 371.38 -79.01 356.36 -78.9 341.34 -79.04 326.32 -79.4 311.3 -79.89 296.28 -80.42 281.26 -80.84 266.24 -81.07 251.22 -81.05 236.2 -80.79 221.18 -80.35 206.16 -79.83 191.14 -79.34 176.12 -79 161.1 -78.9 146.08 -79.04 131.06 -79.4 116.04 -79.9 101.02 -80.42 86 -80.85 70.98 -81.07 55.96 -81.05 40.94 -80.79 25.92 -80.34 10.9 -79.82 -4.11 -79.33 -19.13 -79 -34.15 -78.9 -49.17 -79.04 -64.19 -79.41 -79.21" fill="url(#uuunion-grad)"></path><path d="M-79.41 -79.21Q-79.04 -64.19 -78.9 -49.17 -79 -34.15 -79.33 -19.13 -79.82 -4.11 -80.34 10.9 -80.79 25.92 -81.05 40.94 -81.07 55.96 -80.85 70.98 -80.42 86 -79.9 101.02 -79.4 116.04 -79.04 131.06 -78.9 146.08 -79 161.1 -79.34 176.12 -79.83 191.14 -80.35 206.16 -80.79 221.18 -81.05 236.2 -81.07 251.22 -80.84 266.24 -80.42 281.26 -79.89 296.28 -79.4 311.3 -79.04 326.32 -78.9 341.34 -79.01 356.36 -79.35 371.38 -79.83 386.4 -80.36 401.42 -70.27 404.33 -60.19 407.09 -50.1 409.61 -40.01 411.8 -29.92 413.59 -19.84 414.91 -0.93 415.92 2.33 415.98 14.64 409.08 26.81 401.38 38.85 392.96 50.79 383.95 62.66 374.5 74.49 364.78 86.33 354.98 98.22 345.3 110.22 335.9 122.37 326.95 134.71 318.6 147.27 310.94 160.07 304.04 173.11 297.93 186.4 292.58 199.91 287.94 213.62 283.92 227.46 280.39 241.4 277.2 255.36 274.18 269.26 271.17 283.05 267.98 296.63 264.46 309.95 260.47 322.94 255.9 335.56 250.66 347.77 244.71 359.57 238.05 370.95 230.7 381.93 222.74 392.57 214.26 402.92 205.39 413.06 196.27 423.09 187.06 433.11 177.92 443.22 168.99 453.53 160.42 464.16 152.33 475.19 144.79 486.71 137.89 498.78 131.63 511.44 126.01 524.72 120.99 538.6 116.49 553.05 112.41 568.01 108.63 583.39 105.02 599.08 101.43 614.96 97.72 630.89 93.76 646.72 89.43 662.31 84.64 677.52 79.31 692.21 73.41 706.26 66.93 719.61 59.89 732.17 52.34 743.92 44.36 754.87 36.05 765.05 27.52 774.54 18.9 783.43 10.31 791.87 1.88 800 -6.26 788.22 -23.6 780.11 -40.94 778.16 -58.27 782.99 -75.61 793.1 -92.94 805.34 -110.28 811.11 -135.35 790.99 -140.98 775.7 -138.81 760.41 -136.73 745.12 -134.89 729.83 -133.44 714.54 -132.49 699.25 -132.1 683.96 -132.31 668.67 -133.11 653.38 -134.42 638.09 -136.16 622.8 -138.19 607.51 -140.35 592.22 -142.49 576.93 -144.44 561.64 -146.05 546.35 -147.2 531.06 -147.81 515.77 -147.83 500.48 -147.25 485.19 -146.12 469.9 -144.53 454.61 -142.6 439.32 -140.47 424.03 -138.3 408.74 -136.26 393.45 -134.5 378.16 -133.16 362.87 -132.34 347.58 -132.1 332.29 -132.45 317 -133.38 301.71 -134.8 286.42 -136.62 271.13 -138.7 255.84 -140.87 240.55 -142.98 225.26 -144.86 209.97 -146.37 194.68 -147.4 179.39 -147.87 164.1 -147.74 148.81 -147.03 133.52 -145.78 118.23 -144.1 102.94 -142.1 87.65 -139.95 72.36 -137.8 57.07 -135.81 41.78 -134.14 26.49 -132.92 11.2 -132.23 -4.08 -132.13 -19.37 -132.62 -34.66 -133.68 -49.95 -135.21 -65.24 -137.1 -80.53 -139.21 -95.82 -141.39 -111.11 -143.45 -126.4 -145.26 -136.06 -133.19 -117.81 -114.68 -108.05 -105.98 -98.37 -97.14 -88.82 -88.21 -79.41 -79.21" fill="url(#uuunion-grad2)" filter="url(#uuunion-blur)"></path><path d="M807.27 389.96Q817.35 387.84 827.44 386.13 837.53 384.9 847.61 384.18 857.7 384 867.79 384.37 877.87 385.28 887.96 386.69 897.63 401.5 903.25 416.31 903.53 431.12 898.4 445.94 889.05 460.75 877.63 475.56 866.74 490.37 858.9 505.19 855.9 520 858.43 534.81 865.92 549.63 876.63 564.44 888.12 579.25 897.74 594.06 903.29 608.88 903.49 623.69 898.29 638.5 888.89 653.32 877.45 668.13 866.6 682.94 858.82 697.75 855.9 712.57 858.51 727.38 866.06 742.19 876.81 757.01 888.28 771.82 897.86 786.63 903.33 801.44 903.45 816.26 898.18 831.07 888.73 845.88 877.28 860.7 863.56 858.07 849.83 856.87 836.11 857.16 822.38 858.92 808.66 862.05 794.93 866.33 781.21 871.5 767.48 877.22 753.76 883.12 740.03 888.82 726.31 893.94 712.58 898.17 698.86 901.22 685.13 902.89 671.41 903.09 657.68 901.8 643.96 899.09 630.23 895.16 616.51 890.24 602.78 884.66 589.06 878.78 575.33 872.97 561.61 867.62 547.88 863.07 534.16 859.62 520.43 857.48 506.71 856.8 492.98 857.61 479.26 859.87 465.53 863.44 451.81 868.07 438.08 873.47 424.36 879.3 410.63 885.17 396.91 890.71 383.18 895.55 369.46 899.39 355.73 901.97 342.01 903.14 328.28 902.8 314.56 901 300.83 897.84 287.11 893.52 273.38 888.33 259.66 882.6 245.93 876.7 232.21 871.02 218.48 865.91 204.76 861.72 191.03 858.71 177.31 857.07 163.59 856.91 149.86 858.25 136.14 860.99 122.41 864.96 108.69 869.9 94.96 875.5 81.24 881.38 67.51 887.18 53.79 892.51 40.06 897.03 26.34 900.45 5.9 897.8 -0.5 882.89 -0.26 872.74 -0.1 862.59 -0.02 852.44 -0.05 842.29 -0.03 827.07 0.62 822 13.1 815.07 25.44 807.01 37.63 797.93 49.69 787.99 61.63 777.39 73.48 766.37 85.28 755.19 97.07 744.1 108.9 733.37 120.82 723.23 132.89 713.88 145.13 705.49 157.6 698.15 170.31 691.91 183.28 686.77 196.52 682.65 210.01 679.43 223.72 676.95 237.61 675 251.62 673.33 265.7 671.71 279.77 669.89 293.75 667.64 307.57 664.74 321.15 661.03 334.43 656.38 347.34 650.7 359.84 643.99 371.91 636.27 383.55 627.64 394.75 618.22 405.56 608.2 416.03 597.78 426.23 587.19 436.25 576.65 446.19 566.41 456.16 556.65 466.27 547.58 476.64 539.33 487.36 531.99 498.53 525.63 510.24 520.23 522.54 515.73 535.46 512.04 549.01 509.02 563.18 506.47 577.92 504.21 593.15 502.01 608.78 499.66 624.68 496.96 640.74 493.72 656.78 489.78 672.68 485.03 688.27 479.4 703.42 472.86 718 465.44 731.89 457.22 745.02 448.31 757.34 438.85 768.82 429.02 779.49 419.02 789.39 409.05 802.94 394.63 807.27 389.96" fill="url(#uuunion-grad3)" filter="url(#uuunion-blur2)"></path></svg>
